<svg width="323" height="170" viewBox="0 0 323 170" fill="none" xmlns="http://www.w3.org/2000/svg">
<ellipse cx="30.3564" cy="111.789" rx="18.775" ry="14.7125" transform="rotate(15 30.3564 111.789)" fill="url(#paint0_linear_138_1793)"/>
<ellipse cx="41.0754" cy="132.24" rx="14.8418" ry="10.6221" transform="rotate(-45 41.0754 132.24)" fill="url(#paint1_linear_138_1793)"/>
<ellipse cx="18.775" cy="14.7125" rx="18.775" ry="14.7125" transform="matrix(-0.707107 0.707107 0.707107 0.707107 68.9484 78.5394)" fill="url(#paint2_linear_138_1793)"/>
<ellipse cx="14.8418" cy="10.6221" rx="14.8418" ry="10.6221" transform="matrix(-0.965926 -0.258819 -0.258819 0.965926 84.1034 118.87)" fill="url(#paint3_linear_138_1793)"/>
<path d="M47.5242 103.961C45.4099 97.9192 37.8018 86.3735 24.2836 88.5253" stroke="url(#paint4_linear_138_1793)" stroke-width="3.39974"/>
<path d="M47.4285 103.987C46.2386 97.6971 47.0545 83.8942 59.8375 78.9985" stroke="url(#paint5_linear_138_1793)" stroke-width="3.39974"/>
<ellipse cx="18.775" cy="14.7125" rx="18.775" ry="14.7125" transform="matrix(-0.965926 0.258819 0.258819 0.965926 303.885 26.2109)" fill="url(#paint6_linear_138_1793)"/>
<ellipse cx="14.8418" cy="10.6221" rx="14.8418" ry="10.6221" transform="matrix(-0.707107 -0.707107 -0.707107 0.707107 296.844 68.7157)" fill="url(#paint7_linear_138_1793)"/>
<ellipse cx="253.838" cy="35.7106" rx="18.775" ry="14.7125" transform="rotate(45 253.838 35.7106)" fill="url(#paint8_linear_138_1793)"/>
<ellipse cx="252.895" cy="58.7805" rx="14.8418" ry="10.6221" transform="rotate(-15 252.895 58.7805)" fill="url(#paint9_linear_138_1793)"/>
<path d="M272.389 37.453C274.504 31.4112 282.112 19.8654 295.63 22.0172" stroke="url(#paint10_linear_138_1793)" stroke-width="3.39974"/>
<path d="M272.485 37.4785C273.675 31.1889 272.859 17.386 260.076 12.4904" stroke="url(#paint11_linear_138_1793)" stroke-width="3.39974"/>
<ellipse cx="14.0223" cy="10.9881" rx="14.0223" ry="10.9881" transform="matrix(-0.866025 0.5 0.5 0.866025 198.69 73.5868)" fill="url(#paint12_linear_138_1793)"/>
<ellipse cx="11.0847" cy="7.93318" rx="11.0847" ry="7.93318" transform="matrix(-0.866025 -0.5 -0.5 0.866025 201.827 105.611)" fill="url(#paint13_linear_138_1793)"/>
<ellipse cx="164.422" cy="90.1139" rx="14.0223" ry="10.9881" transform="rotate(30 164.422 90.1139)" fill="url(#paint14_linear_138_1793)"/>
<ellipse cx="168.202" cy="106.939" rx="11.0847" ry="7.93318" transform="rotate(-30 168.202 106.939)" fill="url(#paint15_linear_138_1793)"/>
<path d="M178.142 87.7849C178.5 83.0175 181.756 73.2176 191.925 72.1569" stroke="url(#paint16_linear_138_1793)" stroke-width="2.53913"/>
<path d="M178.216 87.7849C177.859 83.0175 174.602 73.2176 164.434 72.1569" stroke="url(#paint17_linear_138_1793)" stroke-width="2.53913"/>
<g opacity="0.5">
<ellipse cx="14.0223" cy="10.9881" rx="14.0223" ry="10.9881" transform="matrix(-0.707107 0.707107 0.707107 0.707107 117.171 6.93848)" fill="url(#paint18_linear_138_1793)"/>
<ellipse cx="11.0847" cy="7.93318" rx="11.0847" ry="7.93318" transform="matrix(-0.965926 -0.258819 -0.258819 0.965926 128.49 37.0596)" fill="url(#paint19_linear_138_1793)"/>
<ellipse cx="88.3486" cy="31.7718" rx="14.0223" ry="10.9881" transform="rotate(15 88.3486 31.7718)" fill="url(#paint20_linear_138_1793)"/>
<ellipse cx="96.3539" cy="47.0452" rx="11.0847" ry="7.93318" transform="rotate(-45 96.3539 47.0452)" fill="url(#paint21_linear_138_1793)"/>
<path d="M100.998 25.9709C100.11 21.2736 100.719 10.9647 110.266 7.30835" stroke="url(#paint22_linear_138_1793)" stroke-width="2.53913"/>
<path d="M101.07 25.9518C99.4907 21.4394 93.8085 12.8164 83.7123 14.4235" stroke="url(#paint23_linear_138_1793)" stroke-width="2.53913"/>
</g>
<g opacity="0.5">
<ellipse cx="14.0223" cy="10.9881" rx="14.0223" ry="10.9881" transform="matrix(-1 2.58096e-08 2.58096e-08 1 311.532 124.333)" fill="url(#paint24_linear_138_1793)"/>
<ellipse cx="11.0847" cy="7.93318" rx="11.0847" ry="7.93318" transform="matrix(-0.5 -0.866025 -0.866025 0.5 298.236 153.636)" fill="url(#paint25_linear_138_1793)"/>
<ellipse cx="273.591" cy="121.513" rx="14.0223" ry="10.9881" transform="rotate(60 273.591 121.513)" fill="url(#paint26_linear_138_1793)"/>
<ellipse cx="268.452" cy="137.973" rx="11.0847" ry="7.93318" fill="url(#paint27_linear_138_1793)"/>
<path d="M286.638 126.356C289.331 122.406 297.051 115.547 306.388 119.713" stroke="url(#paint28_linear_138_1793)" stroke-width="2.53913"/>
<path d="M286.702 126.393C288.776 122.085 290.856 111.97 282.58 105.967" stroke="url(#paint29_linear_138_1793)" stroke-width="2.53913"/>
</g>
<defs>
<linearGradient id="paint0_linear_138_1793" x1="17.5939" y1="112.152" x2="46.3343" y2="112.635" gradientUnits="userSpaceOnUse">
<stop stop-color="white"/>
<stop offset="1" stop-color="white" stop-opacity="0"/>
</linearGradient>
<linearGradient id="paint1_linear_138_1793" x1="30.9865" y1="132.502" x2="53.7047" y2="132.92" gradientUnits="userSpaceOnUse">
<stop stop-color="white"/>
<stop offset="1" stop-color="white" stop-opacity="0"/>
</linearGradient>
<linearGradient id="paint2_linear_138_1793" x1="6.01248" y1="15.075" x2="34.7528" y2="15.5584" gradientUnits="userSpaceOnUse">
<stop stop-color="white"/>
<stop offset="1" stop-color="white" stop-opacity="0"/>
</linearGradient>
<linearGradient id="paint3_linear_138_1793" x1="4.75291" y1="10.8838" x2="27.4711" y2="11.3022" gradientUnits="userSpaceOnUse">
<stop stop-color="white"/>
<stop offset="1" stop-color="white" stop-opacity="0"/>
</linearGradient>
<linearGradient id="paint4_linear_138_1793" x1="29.8273" y1="85.3246" x2="42.3213" y2="106.965" gradientUnits="userSpaceOnUse">
<stop stop-color="white"/>
<stop offset="1" stop-color="white" stop-opacity="0"/>
</linearGradient>
<linearGradient id="paint5_linear_138_1793" x1="53.4362" y1="78.9985" x2="53.4362" y2="103.987" gradientUnits="userSpaceOnUse">
<stop stop-color="white"/>
<stop offset="1" stop-color="white" stop-opacity="0"/>
</linearGradient>
<linearGradient id="paint6_linear_138_1793" x1="6.01248" y1="15.075" x2="34.7528" y2="15.5584" gradientUnits="userSpaceOnUse">
<stop stop-color="white"/>
<stop offset="1" stop-color="white" stop-opacity="0"/>
</linearGradient>
<linearGradient id="paint7_linear_138_1793" x1="4.75291" y1="10.8838" x2="27.4711" y2="11.3022" gradientUnits="userSpaceOnUse">
<stop stop-color="white"/>
<stop offset="1" stop-color="white" stop-opacity="0"/>
</linearGradient>
<linearGradient id="paint8_linear_138_1793" x1="241.075" y1="36.0731" x2="269.816" y2="36.5566" gradientUnits="userSpaceOnUse">
<stop stop-color="white"/>
<stop offset="1" stop-color="white" stop-opacity="0"/>
</linearGradient>
<linearGradient id="paint9_linear_138_1793" x1="242.807" y1="59.0422" x2="265.525" y2="59.4606" gradientUnits="userSpaceOnUse">
<stop stop-color="white"/>
<stop offset="1" stop-color="white" stop-opacity="0"/>
</linearGradient>
<linearGradient id="paint10_linear_138_1793" x1="290.086" y1="18.8166" x2="277.592" y2="40.4569" gradientUnits="userSpaceOnUse">
<stop stop-color="white"/>
<stop offset="1" stop-color="white" stop-opacity="0"/>
</linearGradient>
<linearGradient id="paint11_linear_138_1793" x1="266.477" y1="12.4904" x2="266.477" y2="37.4785" gradientUnits="userSpaceOnUse">
<stop stop-color="white"/>
<stop offset="1" stop-color="white" stop-opacity="0"/>
</linearGradient>
<linearGradient id="paint12_linear_138_1793" x1="4.49048" y1="11.2589" x2="25.9555" y2="11.62" gradientUnits="userSpaceOnUse">
<stop stop-color="white"/>
<stop offset="1" stop-color="white" stop-opacity="0"/>
</linearGradient>
<linearGradient id="paint13_linear_138_1793" x1="3.54976" y1="8.12864" x2="20.517" y2="8.44116" gradientUnits="userSpaceOnUse">
<stop stop-color="white"/>
<stop offset="1" stop-color="white" stop-opacity="0"/>
</linearGradient>
<linearGradient id="paint14_linear_138_1793" x1="154.89" y1="90.3847" x2="176.355" y2="90.7458" gradientUnits="userSpaceOnUse">
<stop stop-color="white"/>
<stop offset="1" stop-color="white" stop-opacity="0"/>
</linearGradient>
<linearGradient id="paint15_linear_138_1793" x1="160.667" y1="107.135" x2="177.634" y2="107.447" gradientUnits="userSpaceOnUse">
<stop stop-color="white"/>
<stop offset="1" stop-color="white" stop-opacity="0"/>
</linearGradient>
<linearGradient id="paint16_linear_138_1793" x1="187.307" y1="70.9195" x2="182.476" y2="88.9462" gradientUnits="userSpaceOnUse">
<stop stop-color="white"/>
<stop offset="1" stop-color="white" stop-opacity="0"/>
</linearGradient>
<linearGradient id="paint17_linear_138_1793" x1="169.052" y1="70.9195" x2="173.882" y2="88.9462" gradientUnits="userSpaceOnUse">
<stop stop-color="white"/>
<stop offset="1" stop-color="white" stop-opacity="0"/>
</linearGradient>
<linearGradient id="paint18_linear_138_1793" x1="4.49048" y1="11.2589" x2="25.9555" y2="11.62" gradientUnits="userSpaceOnUse">
<stop stop-color="white"/>
<stop offset="1" stop-color="white" stop-opacity="0"/>
</linearGradient>
<linearGradient id="paint19_linear_138_1793" x1="3.54976" y1="8.12864" x2="20.517" y2="8.44116" gradientUnits="userSpaceOnUse">
<stop stop-color="white"/>
<stop offset="1" stop-color="white" stop-opacity="0"/>
</linearGradient>
<linearGradient id="paint20_linear_138_1793" x1="78.8168" y1="32.0425" x2="100.282" y2="32.4036" gradientUnits="userSpaceOnUse">
<stop stop-color="white"/>
<stop offset="1" stop-color="white" stop-opacity="0"/>
</linearGradient>
<linearGradient id="paint21_linear_138_1793" x1="88.819" y1="47.2407" x2="105.786" y2="47.5532" gradientUnits="userSpaceOnUse">
<stop stop-color="white"/>
<stop offset="1" stop-color="white" stop-opacity="0"/>
</linearGradient>
<linearGradient id="paint22_linear_138_1793" x1="105.485" y1="7.30835" x2="105.485" y2="25.9709" gradientUnits="userSpaceOnUse">
<stop stop-color="white"/>
<stop offset="1" stop-color="white" stop-opacity="0"/>
</linearGradient>
<linearGradient id="paint23_linear_138_1793" x1="87.8526" y1="12.033" x2="97.1839" y2="28.1953" gradientUnits="userSpaceOnUse">
<stop stop-color="white"/>
<stop offset="1" stop-color="white" stop-opacity="0"/>
</linearGradient>
<linearGradient id="paint24_linear_138_1793" x1="4.49048" y1="11.2589" x2="25.9555" y2="11.62" gradientUnits="userSpaceOnUse">
<stop stop-color="white"/>
<stop offset="1" stop-color="white" stop-opacity="0"/>
</linearGradient>
<linearGradient id="paint25_linear_138_1793" x1="3.54976" y1="8.12864" x2="20.517" y2="8.44116" gradientUnits="userSpaceOnUse">
<stop stop-color="white"/>
<stop offset="1" stop-color="white" stop-opacity="0"/>
</linearGradient>
<linearGradient id="paint26_linear_138_1793" x1="264.06" y1="121.783" x2="285.524" y2="122.144" gradientUnits="userSpaceOnUse">
<stop stop-color="white"/>
<stop offset="1" stop-color="white" stop-opacity="0"/>
</linearGradient>
<linearGradient id="paint27_linear_138_1793" x1="260.917" y1="138.169" x2="277.884" y2="138.481" gradientUnits="userSpaceOnUse">
<stop stop-color="white"/>
<stop offset="1" stop-color="white" stop-opacity="0"/>
</linearGradient>
<linearGradient id="paint28_linear_138_1793" x1="303.007" y1="116.332" x2="289.811" y2="129.528" gradientUnits="userSpaceOnUse">
<stop stop-color="white"/>
<stop offset="1" stop-color="white" stop-opacity="0"/>
</linearGradient>
<linearGradient id="paint29_linear_138_1793" x1="287.198" y1="107.205" x2="282.368" y2="125.231" gradientUnits="userSpaceOnUse">
<stop stop-color="white"/>
<stop offset="1" stop-color="white" stop-opacity="0"/>
</linearGradient>
</defs>
</svg>
