<svg width="289" height="479" viewBox="0 0 289 479" fill="none" xmlns="http://www.w3.org/2000/svg">
<path fill-rule="evenodd" clip-rule="evenodd" d="M209.082 134.638C208.299 146.343 209.084 157.762 210.819 168.326C202.539 161.541 193.041 155.152 182.513 149.978C155.713 136.805 121.979 131.438 85.2625 147.82L92.7466 164.594C123.569 150.842 151.531 155.217 174.411 166.462C195.89 177.019 212.661 193.571 222.177 206.464C222.3 206.734 222.423 207.002 222.547 207.266L219.566 208.987C201.781 196.93 178.592 189.636 153.229 189.636C97.2059 189.636 51.7902 225.224 51.7902 269.125C51.7902 313.026 97.2059 348.615 153.229 348.615C163.042 348.615 172.529 347.523 181.504 345.486C167.207 380.197 173.36 416.27 197.672 430.307C225.121 446.154 265.323 427.91 287.467 389.556C300.416 367.127 304.322 342.787 299.842 323.272C314.503 336.909 337.535 345.697 363.435 345.697C407.721 345.697 443.623 320.002 443.623 288.307C443.623 260.234 415.459 236.869 378.249 231.895C384.501 225.141 390.19 217.471 395.097 208.973C423.108 160.455 414.996 103.329 376.976 81.379C338.957 59.4286 285.428 80.9654 257.417 129.483C244.735 151.448 239.458 175.177 241.007 196.608L238.679 197.953C238.511 197.713 238.341 197.473 238.169 197.231C231.762 182.544 225.813 159.744 227.41 135.864C229.111 110.426 239.303 84.0235 266.624 64.206L255.839 49.3373C223.293 72.9444 211.075 104.842 209.082 134.638Z" fill="white"/>
</svg>
