<svg width="327" height="147" viewBox="0 0 327 147" fill="none" xmlns="http://www.w3.org/2000/svg">
<g opacity="0.4">
<path fill-rule="evenodd" clip-rule="evenodd" d="M118.009 58.5172C119.306 61.1483 121.166 62.8392 123.191 62.8893C126.886 62.9807 129.733 57.5734 129.551 50.8118C129.382 44.566 126.686 39.3494 123.363 38.5178C120.07 37.5843 115.133 40.7535 111.866 46.0735C108.327 51.8378 108.089 57.9443 111.335 59.7128C113.114 60.6819 115.57 60.1472 118.009 58.5172Z" fill="#141414"/>
<path fill-rule="evenodd" clip-rule="evenodd" d="M118.009 58.5172C119.306 61.1483 121.166 62.8392 123.191 62.8893C126.886 62.9807 129.733 57.5734 129.551 50.8118C129.382 44.566 126.686 39.3494 123.363 38.5178C120.07 37.5843 115.133 40.7535 111.866 46.0735C108.327 51.8378 108.089 57.9443 111.335 59.7128C113.114 60.6819 115.57 60.1472 118.009 58.5172Z" fill="url(#paint0_linear_138_1794)"/>
<path fill-rule="evenodd" clip-rule="evenodd" d="M118.009 58.5172C119.306 61.1483 121.166 62.8392 123.191 62.8893C126.886 62.9807 129.733 57.5734 129.551 50.8118C129.382 44.566 126.686 39.3494 123.363 38.5178C120.07 37.5843 115.133 40.7535 111.866 46.0735C108.327 51.8378 108.089 57.9443 111.335 59.7128C113.114 60.6819 115.57 60.1472 118.009 58.5172Z" fill="url(#paint1_linear_138_1794)"/>
<path fill-rule="evenodd" clip-rule="evenodd" d="M143.517 43.8621C146.149 42.5648 147.84 40.7054 147.89 38.6803C147.981 34.9851 142.574 32.1377 135.812 32.3207C129.565 32.4897 124.348 35.1861 123.518 38.5098C122.586 41.8031 125.755 46.7391 131.074 50.005C136.838 53.5442 142.945 53.782 144.713 50.5361C145.682 48.7572 145.148 46.3013 143.517 43.8621Z" fill="#141414"/>
<path fill-rule="evenodd" clip-rule="evenodd" d="M143.517 43.8621C146.149 42.5648 147.84 40.7054 147.89 38.6803C147.981 34.9851 142.574 32.1377 135.812 32.3207C129.565 32.4897 124.348 35.1861 123.518 38.5098C122.586 41.8031 125.755 46.7391 131.074 50.005C136.838 53.5442 142.945 53.782 144.713 50.5361C145.682 48.7572 145.148 46.3013 143.517 43.8621Z" fill="url(#paint2_linear_138_1794)"/>
<path fill-rule="evenodd" clip-rule="evenodd" d="M143.517 43.8621C146.149 42.5648 147.84 40.7054 147.89 38.6803C147.981 34.9851 142.574 32.1377 135.812 32.3207C129.565 32.4897 124.348 35.1861 123.518 38.5098C122.586 41.8031 125.755 46.7391 131.074 50.005C136.838 53.5442 142.945 53.782 144.713 50.5361C145.682 48.7572 145.148 46.3013 143.517 43.8621Z" fill="url(#paint3_linear_138_1794)"/>
<path fill-rule="evenodd" clip-rule="evenodd" d="M103.483 33.1351C100.852 34.4324 99.1611 36.2918 99.1111 38.3167C99.0197 42.012 104.427 44.8594 111.189 44.6764C117.44 44.5073 122.66 41.8075 123.485 38.481C124.41 35.1876 121.242 30.2561 115.927 26.9924C110.162 23.4531 104.056 23.2154 102.287 26.4613C101.318 28.2401 101.853 30.696 103.483 33.1351Z" fill="url(#paint4_linear_138_1794)"/>
<path fill-rule="evenodd" clip-rule="evenodd" d="M128.737 18.4829C131.176 16.853 133.632 16.3183 135.41 17.2874C138.656 19.0559 138.419 25.1624 134.879 30.9266C131.61 36.2511 126.668 39.4211 123.374 38.48C120.055 37.642 117.364 32.4287 117.195 26.188C117.012 19.4265 119.86 14.0192 123.555 14.1106C125.58 14.1607 127.44 15.8517 128.737 18.4829Z" fill="#141414"/>
<path fill-rule="evenodd" clip-rule="evenodd" d="M128.737 18.4829C131.176 16.853 133.632 16.3183 135.41 17.2874C138.656 19.0559 138.419 25.1624 134.879 30.9266C131.61 36.2511 126.668 39.4211 123.374 38.48C120.055 37.642 117.364 32.4287 117.195 26.188C117.012 19.4265 119.86 14.0192 123.555 14.1106C125.58 14.1607 127.44 15.8517 128.737 18.4829Z" fill="url(#paint5_linear_138_1794)"/>
<path fill-rule="evenodd" clip-rule="evenodd" d="M128.737 18.4829C131.176 16.853 133.632 16.3183 135.41 17.2874C138.656 19.0559 138.419 25.1624 134.879 30.9266C131.61 36.2511 126.668 39.4211 123.374 38.48C120.055 37.642 117.364 32.4287 117.195 26.188C117.012 19.4265 119.86 14.0192 123.555 14.1106C125.58 14.1607 127.44 15.8517 128.737 18.4829Z" fill="url(#paint6_linear_138_1794)"/>
</g>
<path d="M63.7837 146.042C63.7837 129.629 62.6427 115.823 44.7659 108.871" stroke="white" stroke-width="4.32224"/>
<path fill-rule="evenodd" clip-rule="evenodd" d="M32.4024 125.959C34.5032 130.219 37.5142 132.957 40.7933 133.038C46.7772 133.186 51.388 124.43 51.0918 113.481C50.8183 103.369 46.4551 94.9225 41.0758 93.5734C35.7428 92.0592 27.7461 97.1915 22.4556 105.808C16.7245 115.142 16.3394 125.031 21.5957 127.894C24.4761 129.464 28.4528 128.598 32.4024 125.959Z" fill="#141414"/>
<path fill-rule="evenodd" clip-rule="evenodd" d="M32.4024 125.959C34.5032 130.219 37.5142 132.957 40.7933 133.038C46.7772 133.186 51.388 124.43 51.0918 113.481C50.8183 103.369 46.4551 94.9225 41.0758 93.5734C35.7428 92.0592 27.7461 97.1915 22.4556 105.808C16.7245 115.142 16.3394 125.031 21.5957 127.894C24.4761 129.464 28.4528 128.598 32.4024 125.959Z" fill="url(#paint7_linear_138_1794)"/>
<path fill-rule="evenodd" clip-rule="evenodd" d="M32.4024 125.959C34.5032 130.219 37.5142 132.957 40.7933 133.038C46.7772 133.186 51.388 124.43 51.0918 113.481C50.8183 103.369 46.4551 94.9225 41.0758 93.5734C35.7428 92.0592 27.7461 97.1915 22.4556 105.808C16.7245 115.142 16.3394 125.031 21.5957 127.894C24.4761 129.464 28.4528 128.598 32.4024 125.959Z" fill="url(#paint8_linear_138_1794)"/>
<path fill-rule="evenodd" clip-rule="evenodd" d="M73.7083 102.226C77.9691 100.125 80.7074 97.114 80.7885 93.8348C80.9365 87.8508 72.1803 83.24 61.231 83.5363C51.121 83.8098 42.6761 88.1712 41.3244 93.5489C39.8066 98.882 44.9393 106.881 53.5578 112.173C62.8921 117.904 72.7806 118.289 75.6444 113.033C77.2137 110.152 76.3478 106.176 73.7083 102.226Z" fill="#141414"/>
<path fill-rule="evenodd" clip-rule="evenodd" d="M73.7083 102.226C77.9691 100.125 80.7074 97.114 80.7885 93.8348C80.9365 87.8508 72.1803 83.24 61.231 83.5363C51.121 83.8098 42.6761 88.1712 41.3244 93.5489C39.8066 98.882 44.9393 106.881 53.5578 112.173C62.8921 117.904 72.7806 118.289 75.6444 113.033C77.2137 110.152 76.3478 106.176 73.7083 102.226Z" fill="url(#paint9_linear_138_1794)"/>
<path fill-rule="evenodd" clip-rule="evenodd" d="M73.7083 102.226C77.9691 100.125 80.7074 97.114 80.7885 93.8348C80.9365 87.8508 72.1803 83.24 61.231 83.5363C51.121 83.8098 42.6761 88.1712 41.3244 93.5489C39.8066 98.882 44.9393 106.881 53.5578 112.173C62.8921 117.904 72.7806 118.289 75.6444 113.033C77.2137 110.152 76.3478 106.176 73.7083 102.226Z" fill="url(#paint10_linear_138_1794)"/>
<path fill-rule="evenodd" clip-rule="evenodd" d="M8.87872 84.8551C4.61789 86.9559 1.87955 89.967 1.79843 93.2462C1.65042 99.2302 10.4066 103.841 21.3559 103.545C31.4675 103.271 39.9134 98.9084 41.2631 93.5296C42.7788 88.1965 37.6464 80.1988 29.0291 74.9079C19.6948 69.1767 9.80631 68.7917 6.94253 74.0479C5.37314 76.9284 6.23909 80.9053 8.87872 84.8551Z" fill="url(#paint11_linear_138_1794)"/>
<path fill-rule="evenodd" clip-rule="evenodd" d="M49.7732 61.1286C47.6724 56.868 44.6614 54.1298 41.3822 54.0487C35.3983 53.9007 30.7875 62.6569 31.0837 73.6062C31.3573 83.7196 35.7215 92.1667 41.1017 93.5142C46.4348 95.0267 54.4302 89.8947 59.7201 81.2791C65.4513 71.9449 65.8363 62.0564 60.5801 59.1926C57.6997 57.6232 53.7229 58.4891 49.7732 61.1286Z" fill="#141414"/>
<path fill-rule="evenodd" clip-rule="evenodd" d="M49.7732 61.1286C47.6724 56.868 44.6614 54.1298 41.3822 54.0487C35.3983 53.9007 30.7875 62.6569 31.0837 73.6062C31.3573 83.7196 35.7215 92.1667 41.1017 93.5142C46.4348 95.0267 54.4302 89.8947 59.7201 81.2791C65.4513 71.9449 65.8363 62.0564 60.5801 59.1926C57.6997 57.6232 53.7229 58.4891 49.7732 61.1286Z" fill="url(#paint12_linear_138_1794)"/>
<path fill-rule="evenodd" clip-rule="evenodd" d="M49.7732 61.1286C47.6724 56.868 44.6614 54.1298 41.3822 54.0487C35.3983 53.9007 30.7875 62.6569 31.0837 73.6062C31.3573 83.7196 35.7215 92.1667 41.1017 93.5142C46.4348 95.0267 54.4302 89.8947 59.7201 81.2791C65.4513 71.9449 65.8363 62.0564 60.5801 59.1926C57.6997 57.6232 53.7229 58.4891 49.7732 61.1286Z" fill="url(#paint13_linear_138_1794)"/>
<path fill-rule="evenodd" clip-rule="evenodd" d="M150.263 126.269C151.382 128.539 152.986 129.998 154.734 130.041C157.922 130.12 160.378 125.455 160.22 119.622C160.074 114.232 157.749 109.731 154.881 109.015C152.04 108.21 147.781 110.944 144.964 115.534C141.91 120.507 141.705 125.775 144.505 127.301C146.04 128.137 148.159 127.676 150.263 126.269Z" fill="#141414"/>
<path fill-rule="evenodd" clip-rule="evenodd" d="M150.263 126.269C151.382 128.539 152.986 129.998 154.734 130.041C157.922 130.12 160.378 125.455 160.22 119.622C160.074 114.232 157.749 109.731 154.881 109.015C152.04 108.21 147.781 110.944 144.964 115.534C141.91 120.507 141.705 125.775 144.505 127.301C146.04 128.137 148.159 127.676 150.263 126.269Z" fill="url(#paint14_linear_138_1794)"/>
<path fill-rule="evenodd" clip-rule="evenodd" d="M150.263 126.269C151.382 128.539 152.986 129.998 154.734 130.041C157.922 130.12 160.378 125.455 160.22 119.622C160.074 114.232 157.749 109.731 154.881 109.015C152.04 108.21 147.781 110.944 144.964 115.534C141.91 120.507 141.705 125.775 144.505 127.301C146.04 128.137 148.159 127.676 150.263 126.269Z" fill="url(#paint15_linear_138_1794)"/>
<path fill-rule="evenodd" clip-rule="evenodd" d="M172.27 113.626C173.676 115.73 174.137 117.849 173.301 119.383C171.775 122.184 166.507 121.979 161.534 118.925C156.942 116.106 154.207 111.844 155.017 109.002C155.737 106.137 160.236 103.814 165.622 103.668C171.456 103.511 176.121 105.967 176.042 109.155C175.999 110.902 174.54 112.507 172.27 113.626Z" fill="#141414"/>
<path fill-rule="evenodd" clip-rule="evenodd" d="M172.27 113.626C173.676 115.73 174.137 117.849 173.301 119.383C171.775 122.184 166.507 121.979 161.534 118.925C156.942 116.106 154.207 111.844 155.017 109.002C155.737 106.137 160.236 103.814 165.622 103.668C171.456 103.511 176.121 105.967 176.042 109.155C175.999 110.902 174.54 112.507 172.27 113.626Z" fill="url(#paint16_linear_138_1794)"/>
<path fill-rule="evenodd" clip-rule="evenodd" d="M172.27 113.626C173.676 115.73 174.137 117.849 173.301 119.383C171.775 122.184 166.507 121.979 161.534 118.925C156.942 116.106 154.207 111.844 155.017 109.002C155.737 106.137 160.236 103.814 165.622 103.668C171.456 103.511 176.121 105.967 176.042 109.155C175.999 110.902 174.54 112.507 172.27 113.626Z" fill="url(#paint17_linear_138_1794)"/>
<path fill-rule="evenodd" clip-rule="evenodd" d="M137.731 104.371C135.461 105.49 134.002 107.094 133.959 108.841C133.88 112.029 138.545 114.486 144.378 114.328C149.769 114.182 154.27 111.855 154.985 108.987C155.788 106.146 153.054 101.888 148.466 99.0712C143.493 96.0178 138.225 95.8126 136.699 98.613C135.863 100.148 136.324 102.266 137.731 104.371Z" fill="url(#paint18_linear_138_1794)"/>
<path fill-rule="evenodd" clip-rule="evenodd" d="M159.518 91.7302C161.622 90.324 163.741 89.8627 165.275 90.6988C168.076 92.2246 167.871 97.4929 164.817 102.466C161.997 107.059 157.734 109.794 154.893 108.983C152.029 108.261 149.706 103.763 149.561 98.3778C149.403 92.5444 151.859 87.8793 155.047 87.9582C156.794 88.0014 158.399 89.4602 159.518 91.7302Z" fill="#141414"/>
<path fill-rule="evenodd" clip-rule="evenodd" d="M159.518 91.7302C161.622 90.324 163.741 89.8627 165.275 90.6988C168.076 92.2246 167.871 97.4929 164.817 102.466C161.997 107.059 157.734 109.794 154.893 108.983C152.029 108.261 149.706 103.763 149.561 98.3778C149.403 92.5444 151.859 87.8793 155.047 87.9582C156.794 88.0014 158.399 89.4602 159.518 91.7302Z" fill="url(#paint19_linear_138_1794)"/>
<path fill-rule="evenodd" clip-rule="evenodd" d="M159.518 91.7302C161.622 90.324 163.741 89.8627 165.275 90.6988C168.076 92.2246 167.871 97.4929 164.817 102.466C161.997 107.059 157.734 109.794 154.893 108.983C152.029 108.261 149.706 103.763 149.561 98.3778C149.403 92.5444 151.859 87.8793 155.047 87.9582C156.794 88.0014 158.399 89.4602 159.518 91.7302Z" fill="url(#paint20_linear_138_1794)"/>
<g opacity="0.6">
<path d="M274 146.5C274 134.243 279.894 100.475 293.244 95.2836" stroke="white" stroke-width="3.22778"/>
<path fill-rule="evenodd" clip-rule="evenodd" d="M302.477 108.044C300.908 111.226 298.66 113.27 296.211 113.331C291.742 113.441 288.299 106.903 288.52 98.7257C288.724 91.1742 291.983 84.8667 296 83.8592C299.983 82.7284 305.954 86.5611 309.905 92.9957C314.185 99.9664 314.473 107.351 310.547 109.49C308.396 110.662 305.427 110.015 302.477 108.044Z" fill="#141414"/>
<path fill-rule="evenodd" clip-rule="evenodd" d="M302.477 108.044C300.908 111.226 298.66 113.27 296.211 113.331C291.742 113.441 288.299 106.903 288.52 98.7257C288.724 91.1742 291.983 84.8667 296 83.8592C299.983 82.7284 305.954 86.5611 309.905 92.9957C314.185 99.9664 314.473 107.351 310.547 109.49C308.396 110.662 305.427 110.015 302.477 108.044Z" fill="url(#paint21_linear_138_1794)"/>
<path fill-rule="evenodd" clip-rule="evenodd" d="M302.477 108.044C300.908 111.226 298.66 113.27 296.211 113.331C291.742 113.441 288.299 106.903 288.52 98.7257C288.724 91.1742 291.983 84.8667 296 83.8592C299.983 82.7284 305.954 86.5611 309.905 92.9957C314.185 99.9664 314.473 107.351 310.547 109.49C308.396 110.662 305.427 110.015 302.477 108.044Z" fill="url(#paint22_linear_138_1794)"/>
<path fill-rule="evenodd" clip-rule="evenodd" d="M271.63 90.321C268.449 88.7522 266.404 86.5036 266.343 84.0547C266.233 79.586 272.771 76.1428 280.948 76.364C288.498 76.5682 294.805 79.8253 295.814 83.8413C296.948 87.824 293.115 93.7976 286.678 97.7493C279.708 102.029 272.323 102.317 270.185 98.3915C269.013 96.2405 269.659 93.2706 271.63 90.321Z" fill="#141414"/>
<path fill-rule="evenodd" clip-rule="evenodd" d="M271.63 90.321C268.449 88.7522 266.404 86.5036 266.343 84.0547C266.233 79.586 272.771 76.1428 280.948 76.364C288.498 76.5682 294.805 79.8253 295.814 83.8413C296.948 87.824 293.115 93.7976 286.678 97.7493C279.708 102.029 272.323 102.317 270.185 98.3915C269.013 96.2405 269.659 93.2706 271.63 90.321Z" fill="url(#paint23_linear_138_1794)"/>
<path fill-rule="evenodd" clip-rule="evenodd" d="M271.63 90.321C268.449 88.7522 266.404 86.5036 266.343 84.0547C266.233 79.586 272.771 76.1428 280.948 76.364C288.498 76.5682 294.805 79.8253 295.814 83.8413C296.948 87.824 293.115 93.7976 286.678 97.7493C279.708 102.029 272.323 102.317 270.185 98.3915C269.013 96.2405 269.659 93.2706 271.63 90.321Z" fill="url(#paint24_linear_138_1794)"/>
<path fill-rule="evenodd" clip-rule="evenodd" d="M320.044 77.3488C323.226 78.9176 325.271 81.1662 325.331 83.6151C325.442 88.0838 318.903 91.5271 310.726 91.3059C303.175 91.1016 296.868 87.8436 295.86 83.8269C294.728 79.8442 298.561 73.8716 304.996 69.9203C311.967 65.6404 319.351 65.3529 321.49 69.2781C322.662 71.4292 322.015 74.3991 320.044 77.3488Z" fill="url(#paint25_linear_138_1794)"/>
<path fill-rule="evenodd" clip-rule="evenodd" d="M289.505 59.6303C291.074 56.4486 293.322 54.4037 295.771 54.3432C300.24 54.2326 303.683 60.7716 303.462 68.9484C303.257 76.5008 299.998 82.809 295.981 83.8153C291.998 84.9449 286.027 81.1123 282.077 74.6784C277.797 67.7077 277.509 60.3231 281.434 58.1845C283.585 57.0126 286.555 57.6592 289.505 59.6303Z" fill="#141414"/>
<path fill-rule="evenodd" clip-rule="evenodd" d="M289.505 59.6303C291.074 56.4486 293.322 54.4037 295.771 54.3432C300.24 54.2326 303.683 60.7716 303.462 68.9484C303.257 76.5008 299.998 82.809 295.981 83.8153C291.998 84.9449 286.027 81.1123 282.077 74.6784C277.797 67.7077 277.509 60.3231 281.434 58.1845C283.585 57.0126 286.555 57.6592 289.505 59.6303Z" fill="url(#paint26_linear_138_1794)"/>
<path fill-rule="evenodd" clip-rule="evenodd" d="M289.505 59.6303C291.074 56.4486 293.322 54.4037 295.771 54.3432C300.24 54.2326 303.683 60.7716 303.462 68.9484C303.257 76.5008 299.998 82.809 295.981 83.8153C291.998 84.9449 286.027 81.1123 282.077 74.6784C277.797 67.7077 277.509 60.3231 281.434 58.1845C283.585 57.0126 286.555 57.6592 289.505 59.6303Z" fill="url(#paint27_linear_138_1794)"/>
</g>
<path d="M245.879 12.5074C242.969 23.3692 229.728 51.8935 216.665 53.3239" stroke="white" stroke-width="2.96123"/>
<path fill-rule="evenodd" clip-rule="evenodd" d="M211.512 39.8244C209.367 37.3774 206.889 36.0992 204.704 36.627C200.718 37.5902 199.219 44.2023 201.357 51.3957C203.331 58.0375 207.714 62.8526 211.512 62.7939C215.311 62.8526 219.694 58.0375 221.668 51.3957C223.806 44.2023 222.307 37.5902 218.321 36.627C216.136 36.0992 213.658 37.3774 211.512 39.8244Z" fill="#141414"/>
<path fill-rule="evenodd" clip-rule="evenodd" d="M211.512 39.8244C209.367 37.3774 206.889 36.0992 204.704 36.627C200.718 37.5902 199.219 44.2023 201.357 51.3957C203.331 58.0375 207.714 62.8526 211.512 62.7939C215.311 62.8526 219.694 58.0375 221.668 51.3957C223.806 44.2023 222.307 37.5902 218.321 36.627C216.136 36.0992 213.658 37.3774 211.512 39.8244Z" fill="url(#paint28_linear_138_1794)"/>
<path fill-rule="evenodd" clip-rule="evenodd" d="M211.512 39.8244C209.367 37.3774 206.889 36.0992 204.704 36.627C200.718 37.5902 199.219 44.2023 201.357 51.3957C203.331 58.0375 207.714 62.8526 211.512 62.7939C215.311 62.8526 219.694 58.0375 221.668 51.3957C223.806 44.2023 222.307 37.5902 218.321 36.627C216.136 36.0992 213.658 37.3774 211.512 39.8244Z" fill="url(#paint29_linear_138_1794)"/>
<path fill-rule="evenodd" clip-rule="evenodd" d="M234.64 62.8535C237.087 60.7078 238.365 58.2296 237.837 56.0451C236.874 52.0589 230.262 50.5603 223.069 52.6978C216.427 54.6715 211.612 59.0551 211.67 62.8535C211.612 66.6519 216.427 71.0355 223.069 73.0092C230.262 75.1468 236.874 73.6481 237.837 69.6619C238.365 67.4774 237.087 64.9993 234.64 62.8535Z" fill="#141414"/>
<path fill-rule="evenodd" clip-rule="evenodd" d="M234.64 62.8535C237.087 60.7078 238.365 58.2296 237.837 56.0451C236.874 52.0589 230.262 50.5603 223.069 52.6978C216.427 54.6715 211.612 59.0551 211.67 62.8535C211.612 66.6519 216.427 71.0355 223.069 73.0092C230.262 75.1468 236.874 73.6481 237.837 69.6619C238.365 67.4774 237.087 64.9993 234.64 62.8535Z" fill="url(#paint30_linear_138_1794)"/>
<path fill-rule="evenodd" clip-rule="evenodd" d="M234.64 62.8535C237.087 60.7078 238.365 58.2296 237.837 56.0451C236.874 52.0589 230.262 50.5603 223.069 52.6978C216.427 54.6715 211.612 59.0551 211.67 62.8535C211.612 66.6519 216.427 71.0355 223.069 73.0092C230.262 75.1468 236.874 73.6481 237.837 69.6619C238.365 67.4774 237.087 64.9993 234.64 62.8535Z" fill="url(#paint31_linear_138_1794)"/>
<path fill-rule="evenodd" clip-rule="evenodd" d="M188.657 62.8536C186.21 60.7079 184.932 58.2296 185.46 56.0451C186.423 52.0589 193.035 50.5603 200.228 52.6978C206.87 54.6716 211.686 59.0552 211.627 62.8537C211.686 66.6521 206.87 71.0358 200.228 73.0094C193.035 75.147 186.423 73.6484 185.46 69.6621C184.932 67.4776 186.21 64.9994 188.657 62.8536Z" fill="url(#paint32_linear_138_1794)"/>
<path fill-rule="evenodd" clip-rule="evenodd" d="M211.513 85.8064C213.659 88.2535 216.137 89.5316 218.321 89.0038C222.307 88.0407 223.806 81.4285 221.669 74.2351C219.695 67.5933 215.311 62.7782 211.513 62.837C207.714 62.7782 203.331 67.5933 201.357 74.2351C199.22 81.4285 200.718 88.0407 204.704 89.0038C206.889 89.5316 209.367 88.2535 211.513 85.8064Z" fill="#141414"/>
<path fill-rule="evenodd" clip-rule="evenodd" d="M211.513 85.8064C213.659 88.2535 216.137 89.5316 218.321 89.0038C222.307 88.0407 223.806 81.4285 221.669 74.2351C219.695 67.5933 215.311 62.7782 211.513 62.837C207.714 62.7782 203.331 67.5933 201.357 74.2351C199.22 81.4285 200.718 88.0407 204.704 89.0038C206.889 89.5316 209.367 88.2535 211.513 85.8064Z" fill="url(#paint33_linear_138_1794)"/>
<path fill-rule="evenodd" clip-rule="evenodd" d="M211.513 85.8064C213.659 88.2535 216.137 89.5316 218.321 89.0038C222.307 88.0407 223.806 81.4285 221.669 74.2351C219.695 67.5933 215.311 62.7782 211.513 62.837C207.714 62.7782 203.331 67.5933 201.357 74.2351C199.22 81.4285 200.718 88.0407 204.704 89.0038C206.889 89.5316 209.367 88.2535 211.513 85.8064Z" fill="url(#paint34_linear_138_1794)"/>
<defs>
<linearGradient id="paint0_linear_138_1794" x1="114.028" y1="58.1279" x2="119.048" y2="37.7747" gradientUnits="userSpaceOnUse">
<stop stop-color="#00A850"/>
<stop offset="0.64611" stop-color="#CCEEDC"/>
<stop offset="1" stop-color="#00A850"/>
</linearGradient>
<linearGradient id="paint1_linear_138_1794" x1="118.083" y1="58.0882" x2="123.348" y2="39.0917" gradientUnits="userSpaceOnUse">
<stop stop-color="white"/>
<stop offset="1" stop-color="#00A850"/>
</linearGradient>
<linearGradient id="paint2_linear_138_1794" x1="143.128" y1="47.8434" x2="122.775" y2="42.8229" gradientUnits="userSpaceOnUse">
<stop stop-color="#00A850"/>
<stop offset="0.64611" stop-color="#CCEEDC"/>
<stop offset="1" stop-color="#00A850"/>
</linearGradient>
<linearGradient id="paint3_linear_138_1794" x1="143.089" y1="43.7887" x2="124.092" y2="38.5229" gradientUnits="userSpaceOnUse">
<stop stop-color="white"/>
<stop offset="1" stop-color="#00A850"/>
</linearGradient>
<linearGradient id="paint4_linear_138_1794" x1="103.891" y1="33.2858" x2="122.976" y2="38.2238" gradientUnits="userSpaceOnUse">
<stop stop-color="white"/>
<stop offset="1" stop-color="#00A850"/>
</linearGradient>
<linearGradient id="paint5_linear_138_1794" x1="132.718" y1="18.8721" x2="127.697" y2="39.2255" gradientUnits="userSpaceOnUse">
<stop stop-color="#00A850"/>
<stop offset="0.64611" stop-color="#CCEEDC"/>
<stop offset="1" stop-color="#00A850"/>
</linearGradient>
<linearGradient id="paint6_linear_138_1794" x1="128.663" y1="18.9118" x2="123.397" y2="37.9084" gradientUnits="userSpaceOnUse">
<stop stop-color="white"/>
<stop offset="1" stop-color="#00A850"/>
</linearGradient>
<linearGradient id="paint7_linear_138_1794" x1="25.9556" y1="125.328" x2="34.0855" y2="92.3693" gradientUnits="userSpaceOnUse">
<stop stop-color="#00A850"/>
<stop offset="0.64611" stop-color="#CCEEDC"/>
<stop offset="1" stop-color="#00A850"/>
</linearGradient>
<linearGradient id="paint8_linear_138_1794" x1="32.5214" y1="125.264" x2="41.0485" y2="94.502" gradientUnits="userSpaceOnUse">
<stop stop-color="white"/>
<stop offset="1" stop-color="#00A850"/>
</linearGradient>
<linearGradient id="paint9_linear_138_1794" x1="73.0779" y1="108.673" x2="40.1191" y2="100.543" gradientUnits="userSpaceOnUse">
<stop stop-color="#00A850"/>
<stop offset="0.64611" stop-color="#CCEEDC"/>
<stop offset="1" stop-color="#00A850"/>
</linearGradient>
<linearGradient id="paint10_linear_138_1794" x1="73.0136" y1="102.107" x2="42.2518" y2="93.5797" gradientUnits="userSpaceOnUse">
<stop stop-color="white"/>
<stop offset="1" stop-color="#00A850"/>
</linearGradient>
<linearGradient id="paint11_linear_138_1794" x1="9.53967" y1="85.0993" x2="40.4436" y2="93.0954" gradientUnits="userSpaceOnUse">
<stop stop-color="white"/>
<stop offset="1" stop-color="#00A850"/>
</linearGradient>
<linearGradient id="paint12_linear_138_1794" x1="56.2201" y1="61.759" x2="48.0902" y2="94.7177" gradientUnits="userSpaceOnUse">
<stop stop-color="#00A850"/>
<stop offset="0.64611" stop-color="#CCEEDC"/>
<stop offset="1" stop-color="#00A850"/>
</linearGradient>
<linearGradient id="paint13_linear_138_1794" x1="49.6543" y1="61.8234" x2="41.1271" y2="92.585" gradientUnits="userSpaceOnUse">
<stop stop-color="white"/>
<stop offset="1" stop-color="#00A850"/>
</linearGradient>
<linearGradient id="paint14_linear_138_1794" x1="146.828" y1="125.933" x2="151.16" y2="108.374" gradientUnits="userSpaceOnUse">
<stop stop-color="#00A850"/>
<stop offset="0.64611" stop-color="#CCEEDC"/>
<stop offset="1" stop-color="#00A850"/>
</linearGradient>
<linearGradient id="paint15_linear_138_1794" x1="150.326" y1="125.899" x2="154.869" y2="109.51" gradientUnits="userSpaceOnUse">
<stop stop-color="white"/>
<stop offset="1" stop-color="#00A850"/>
</linearGradient>
<linearGradient id="paint16_linear_138_1794" x1="171.934" y1="117.06" x2="154.374" y2="112.729" gradientUnits="userSpaceOnUse">
<stop stop-color="#00A850"/>
<stop offset="0.64611" stop-color="#CCEEDC"/>
<stop offset="1" stop-color="#00A850"/>
</linearGradient>
<linearGradient id="paint17_linear_138_1794" x1="171.9" y1="113.562" x2="155.511" y2="109.019" gradientUnits="userSpaceOnUse">
<stop stop-color="white"/>
<stop offset="1" stop-color="#00A850"/>
</linearGradient>
<linearGradient id="paint18_linear_138_1794" x1="138.083" y1="104.501" x2="154.547" y2="108.761" gradientUnits="userSpaceOnUse">
<stop stop-color="white"/>
<stop offset="1" stop-color="#00A850"/>
</linearGradient>
<linearGradient id="paint19_linear_138_1794" x1="162.952" y1="92.0661" x2="158.621" y2="109.626" gradientUnits="userSpaceOnUse">
<stop stop-color="#00A850"/>
<stop offset="0.64611" stop-color="#CCEEDC"/>
<stop offset="1" stop-color="#00A850"/>
</linearGradient>
<linearGradient id="paint20_linear_138_1794" x1="159.454" y1="92.1004" x2="154.911" y2="108.489" gradientUnits="userSpaceOnUse">
<stop stop-color="white"/>
<stop offset="1" stop-color="#00A850"/>
</linearGradient>
<linearGradient id="paint21_linear_138_1794" x1="307.291" y1="107.573" x2="301.22" y2="82.96" gradientUnits="userSpaceOnUse">
<stop stop-color="#00A850"/>
<stop offset="0.64611" stop-color="#CCEEDC"/>
<stop offset="1" stop-color="#00A850"/>
</linearGradient>
<linearGradient id="paint22_linear_138_1794" x1="302.388" y1="107.525" x2="296.02" y2="84.5527" gradientUnits="userSpaceOnUse">
<stop stop-color="white"/>
<stop offset="1" stop-color="#00A850"/>
</linearGradient>
<linearGradient id="paint23_linear_138_1794" x1="272.101" y1="95.1355" x2="296.714" y2="89.0642" gradientUnits="userSpaceOnUse">
<stop stop-color="#00A850"/>
<stop offset="0.64611" stop-color="#CCEEDC"/>
<stop offset="1" stop-color="#00A850"/>
</linearGradient>
<linearGradient id="paint24_linear_138_1794" x1="272.149" y1="90.2322" x2="295.122" y2="83.8642" gradientUnits="userSpaceOnUse">
<stop stop-color="white"/>
<stop offset="1" stop-color="#00A850"/>
</linearGradient>
<linearGradient id="paint25_linear_138_1794" x1="319.55" y1="77.5311" x2="296.472" y2="83.5025" gradientUnits="userSpaceOnUse">
<stop stop-color="white"/>
<stop offset="1" stop-color="#00A850"/>
</linearGradient>
<linearGradient id="paint26_linear_138_1794" x1="284.69" y1="60.1011" x2="290.762" y2="84.7141" gradientUnits="userSpaceOnUse">
<stop stop-color="#00A850"/>
<stop offset="0.64611" stop-color="#CCEEDC"/>
<stop offset="1" stop-color="#00A850"/>
</linearGradient>
<linearGradient id="paint27_linear_138_1794" x1="289.594" y1="60.1491" x2="295.961" y2="83.1214" gradientUnits="userSpaceOnUse">
<stop stop-color="white"/>
<stop offset="1" stop-color="#00A850"/>
</linearGradient>
<linearGradient id="paint28_linear_138_1794" x1="207.134" y1="39.0985" x2="206.67" y2="62.3512" gradientUnits="userSpaceOnUse">
<stop stop-color="#00A850"/>
<stop offset="0.64611" stop-color="#CCEEDC"/>
<stop offset="1" stop-color="#00A850"/>
</linearGradient>
<linearGradient id="paint29_linear_138_1794" x1="211.468" y1="40.3054" x2="211.656" y2="62.1746" gradientUnits="userSpaceOnUse">
<stop stop-color="white"/>
<stop offset="1" stop-color="#00A850"/>
</linearGradient>
<linearGradient id="paint30_linear_138_1794" x1="235.366" y1="58.4753" x2="212.113" y2="58.0112" gradientUnits="userSpaceOnUse">
<stop stop-color="#00A850"/>
<stop offset="0.64611" stop-color="#CCEEDC"/>
<stop offset="1" stop-color="#00A850"/>
</linearGradient>
<linearGradient id="paint31_linear_138_1794" x1="234.159" y1="62.809" x2="212.29" y2="62.9973" gradientUnits="userSpaceOnUse">
<stop stop-color="white"/>
<stop offset="1" stop-color="#00A850"/>
</linearGradient>
<linearGradient id="paint32_linear_138_1794" x1="189.138" y1="62.8092" x2="211.007" y2="62.9975" gradientUnits="userSpaceOnUse">
<stop stop-color="white"/>
<stop offset="1" stop-color="#00A850"/>
</linearGradient>
<linearGradient id="paint33_linear_138_1794" x1="215.891" y1="86.5323" x2="216.355" y2="63.2797" gradientUnits="userSpaceOnUse">
<stop stop-color="#00A850"/>
<stop offset="0.64611" stop-color="#CCEEDC"/>
<stop offset="1" stop-color="#00A850"/>
</linearGradient>
<linearGradient id="paint34_linear_138_1794" x1="211.557" y1="85.3255" x2="211.369" y2="63.4563" gradientUnits="userSpaceOnUse">
<stop stop-color="white"/>
<stop offset="1" stop-color="#00A850"/>
</linearGradient>
</defs>
</svg>
