<svg width="29" height="69" viewBox="0 0 29 69" fill="none" xmlns="http://www.w3.org/2000/svg">
<path fill-rule="evenodd" clip-rule="evenodd" d="M15.1565 15.6119L18.2377 10.2928C18.5903 9.68393 18.7934 8.97752 18.7934 8.21253C18.7934 5.91413 16.9302 4.05091 14.6318 4.05091C12.3334 4.05091 10.4701 5.91413 10.4701 8.21253C10.4701 8.97752 10.6732 9.68392 11.0259 10.2928L14.1073 15.6124L7.9628 15.8089C5.72935 15.8804 3.93885 17.716 3.93885 19.9684C3.93885 22.2668 5.80207 24.13 8.10047 24.13C9.54441 24.13 10.8189 23.3977 11.5707 22.2671L14.6315 17.6638L17.6923 22.2671C18.444 23.3977 19.7185 24.13 21.1625 24.13C23.4609 24.13 25.3241 22.2668 25.3241 19.9684C25.3241 17.7161 23.5337 15.8806 21.3004 15.809L15.1565 15.6119ZM21.4182 12.1352C22.7302 12.1773 23.9608 12.5418 25.0332 13.1521C27.4022 14.5003 28.9997 17.0478 28.9997 19.9684C28.9997 24.2968 25.4909 27.8057 21.1625 27.8057C19.78 27.8057 18.4812 27.4477 17.3536 26.8195C17.0455 26.6478 16.7501 26.456 16.4693 26.2457V29.8865H19.5297V33.5622H16.4693V52.0921H22.7952V55.7677H19.735V57.3172H22.7952V60.9929H19.735V62.542H22.7952V66.2176H16.4693V68.6251H12.7936V33.5622H9.73313V29.8865H12.7936V26.2457C12.5128 26.4559 12.2175 26.6478 11.9093 26.8195C10.7817 27.4477 9.48289 27.8057 8.10047 27.8057C3.77206 27.8057 0.263184 24.2968 0.263184 19.9684C0.263184 17.0476 1.86097 14.4999 4.23017 13.1518C5.30267 12.5416 6.53326 12.1771 7.84527 12.1352C7.22644 11.0668 6.85263 9.83887 6.80072 8.52815C6.79657 8.42346 6.79448 8.31824 6.79448 8.21253C6.79448 3.88412 10.3033 0.375244 14.6318 0.375244C18.9602 0.375244 22.4691 3.88412 22.4691 8.21253C22.4691 8.31827 22.467 8.42351 22.4628 8.52822C22.4109 9.83892 22.0371 11.0669 21.4182 12.1352Z" fill="url(#paint0_linear_120_4851)"/>
<defs>
<linearGradient id="paint0_linear_120_4851" x1="18.7135" y1="1.3549" x2="-12.4725" y2="55.073" gradientUnits="userSpaceOnUse">
<stop stop-color="white"/>
<stop offset="0.11077" stop-color="white"/>
<stop offset="0.199751" stop-color="white" stop-opacity="0.41"/>
<stop offset="0.290351" stop-color="white"/>
<stop offset="0.530781" stop-color="white"/>
<stop offset="0.648798" stop-color="white" stop-opacity="0.35"/>
<stop offset="0.730315" stop-color="white"/>
<stop offset="1" stop-color="white"/>
</linearGradient>
</defs>
</svg>
