<svg width="70" height="63" viewBox="0 0 70 63" fill="none" xmlns="http://www.w3.org/2000/svg">
<rect x="0.485596" y="14.6052" width="68.9712" height="48.1967" rx="3.32391" fill="#F88192"/>
<rect x="8.0293" width="53.8837" height="47.7769" rx="3.32391" fill="#FEDDE1"/>
<path d="M0.485596 30.14C0.485596 27.6323 3.15657 26.0278 5.37053 27.2055L33.4101 42.1211C34.3861 42.6402 35.5563 42.6402 36.5322 42.1211L64.5718 27.2055C66.7858 26.0278 69.4567 27.6323 69.4567 30.14V59.5405C69.4567 61.3762 67.9686 62.8644 66.1328 62.8644H3.80951C1.97376 62.8644 0.485596 61.3762 0.485596 59.5405V30.14Z" fill="#FCA9B5"/>
<path d="M3.92839 62.8643C2.76258 62.8643 2.23483 61.4066 3.13043 60.6603L32.8433 35.8996C34.0759 34.8724 35.8664 34.8724 37.0991 35.8996L66.8119 60.6603C67.7075 61.4066 67.1798 62.8643 66.0139 62.8643H3.92839Z" fill="url(#paint0_linear_120_5018)"/>
<path d="M31.5809 12.1831C31.5809 17.5855 23.5707 21.9583 23.2296 22.1389C23.1396 22.1873 23.0392 22.2126 22.9371 22.2126C22.835 22.2126 22.7345 22.1873 22.6446 22.1389C22.3034 21.9583 14.2932 17.5855 14.2932 12.1831C14.2946 10.9144 14.7992 9.69819 15.6963 8.80114C16.5933 7.90409 17.8096 7.3995 19.0782 7.39807C20.6719 7.39807 22.0673 8.0834 22.9371 9.24183C23.8068 8.0834 25.2022 7.39807 26.7959 7.39807C28.0645 7.3995 29.2808 7.90409 30.1778 8.80114C31.0749 9.69819 31.5795 10.9144 31.5809 12.1831Z" fill="#F1304A"/>
<defs>
<linearGradient id="paint0_linear_120_5018" x1="34.9712" y1="34.1263" x2="34.9712" y2="62.8643" gradientUnits="userSpaceOnUse">
<stop stop-color="white"/>
<stop offset="1" stop-color="#FCA9B5"/>
</linearGradient>
</defs>
</svg>
