<svg width="105" height="40" viewBox="0 0 105 40" fill="none" xmlns="http://www.w3.org/2000/svg">
<path d="M99.048 9.16908V26.5568C99.048 26.801 99.1325 26.9889 99.3016 27.1204C99.4707 27.2519 99.6774 27.3176 99.9216 27.3176C100.166 27.3176 100.542 27.2143 101.049 27.0077C101.575 26.801 101.932 26.6225 102.12 26.4722L103.332 30.4176C102.73 30.906 101.932 31.31 100.936 31.6293C99.9592 31.9487 98.9822 32.1084 98.0053 32.1084C96.615 32.1084 95.516 31.6951 94.7081 30.8684C93.9003 30.0418 93.4963 28.9146 93.4963 27.4867V9.16908H99.048Z" fill="#141414"/>
<path d="M86.8014 9.16908V26.5568C86.8014 26.801 86.886 26.9889 87.055 27.1204C87.2241 27.2519 87.4308 27.3176 87.675 27.3176C87.9193 27.3176 88.295 27.2143 88.8023 27.0077C89.3283 26.801 89.6853 26.6225 89.8731 26.4722L91.0849 30.4176C90.4837 30.906 89.6853 31.31 88.6895 31.6293C87.7126 31.9487 86.7357 32.1084 85.7587 32.1084C84.3684 32.1084 83.2694 31.6951 82.4615 30.8684C81.6537 30.0418 81.2498 28.9146 81.2498 27.4867V9.16908H86.8014Z" fill="#141414"/>
<path d="M64.1079 23.4005C64.1079 26.0119 65.0848 27.3176 67.0387 27.3176C68.072 27.3176 68.9268 26.9982 69.6032 26.3595C70.2795 25.7207 70.6928 24.8847 70.8431 23.8514V14.9743H76.2539V26.6413C76.2539 26.9607 76.2915 27.1767 76.3666 27.2894C76.4418 27.4022 76.5545 27.4585 76.7048 27.4585C76.8175 27.4585 77.043 27.3928 77.3811 27.2613C77.7193 27.1298 77.9166 27.0358 77.9729 26.9795L78.6211 30.6148C78.1138 31.0093 77.5032 31.3287 76.7893 31.573C76.0942 31.8172 75.3709 31.9393 74.6194 31.9393C73.8679 31.9393 73.2197 31.7608 72.6749 31.4039C72.1489 31.0469 71.7825 30.5021 71.5758 29.7694C71.0122 30.5397 70.2044 31.1408 69.1523 31.573C68.1002 32.0051 67.0481 32.2211 65.996 32.2211C63.7791 32.2211 62.0037 31.573 60.6698 30.2766C59.3359 28.9803 58.6689 27.1016 58.6689 24.6404V14.9743H64.1079V23.4005Z" fill="#141414"/>
<path d="M51.2426 31.8548H45.7473V22.6114H42.7319V17.877H45.7473V14.9462C45.7473 13.0487 46.2076 11.5833 47.1282 10.55C48.0675 9.51665 49.4766 9 51.3553 9C52.2571 9 53.2153 9.10333 54.2298 9.30999C55.2443 9.51665 56.1179 9.79846 56.8506 10.1554L55.8643 14.5235C55.5449 14.3356 55.1128 14.1665 54.568 14.0162C54.0231 13.8471 53.4971 13.7626 52.9898 13.7626C52.2947 13.7626 51.825 13.9505 51.5808 14.3262C51.3553 14.6832 51.2426 15.2374 51.2426 15.9889V17.877H55.9206V22.6114H51.2426V31.8548Z" fill="#141414"/>
<path d="M32.5717 19.8215C32.3462 19.6336 32.0268 19.4739 31.6135 19.3424C31.2002 19.2109 30.7681 19.1452 30.3172 19.1452C29.1712 19.1452 28.307 19.5491 27.7245 20.3569C27.1609 21.1648 26.8791 22.1605 26.8791 23.3441C26.8791 24.6968 27.2173 25.7395 27.8936 26.4722C28.5888 27.1861 29.4154 27.5431 30.3736 27.5431C31.5759 27.5431 32.5059 27.0922 33.1635 26.1904C33.821 25.2886 34.1498 24.105 34.1498 22.6396V14.9744H39.6451V26.6413C39.6451 26.9607 39.6827 27.1767 39.7578 27.2895C39.833 27.4022 39.9457 27.4586 40.096 27.4586C40.2087 27.4586 40.4342 27.3928 40.7723 27.2613C41.1105 27.1298 41.3078 27.0358 41.3641 26.9795L42.0123 30.6148C41.5051 31.0094 40.8945 31.3287 40.1805 31.573C39.4854 31.8172 38.7621 31.9393 38.0106 31.9393H37.7006C37.0055 31.9018 36.4419 31.7045 36.0098 31.3475C35.5777 30.9906 35.2677 30.5679 35.0798 30.0794C34.9107 29.5909 34.8449 29.14 34.8825 28.7267C34.488 29.7788 33.7553 30.6054 32.6844 31.2066C31.6135 31.789 30.4769 32.0802 29.2745 32.0802C27.64 32.0802 26.231 31.7139 25.0474 30.9812C23.8825 30.2297 22.9901 29.2058 22.3702 27.9094C21.7502 26.6131 21.4402 25.1289 21.4402 23.4569C21.4402 21.7096 21.7596 20.1691 22.3983 18.8352C23.0371 17.5013 23.9483 16.468 25.1319 15.7353C26.3343 15.0026 27.7527 14.6362 29.3872 14.6362C30.1199 14.6362 30.909 14.7677 31.7544 15.0307C32.5999 15.275 33.1917 15.585 33.5298 15.9607L32.5717 19.8215Z" fill="#141414"/>
<path d="M4.84713 9.7327L12.3996 21.5687L13.1042 23.1187V9.7327H18.4304V31.8548H13.8369L6.25618 20.4133L5.32621 18.497V31.8548H0V9.7327H4.84713Z" fill="#141414"/>
</svg>
