<svg width="315" height="177" viewBox="0 0 315 177" fill="none" xmlns="http://www.w3.org/2000/svg">
<path d="M0 21.982C0 12.0488 10.6068 5.71568 19.3512 10.4278L151.274 81.5167C155.16 83.6111 159.84 83.6111 163.726 81.5167L295.649 10.4278C304.393 5.71567 315 12.0488 315 21.982V163.875C315 171.124 309.124 177 301.875 177H13.125C5.87626 177 0 171.124 0 163.875V21.982Z" fill="#CCEEDC"/>
<path d="M13.4572 177C8.86975 177 6.77675 171.277 10.2817 168.318L149.032 51.1508C153.922 47.0213 161.078 47.0213 165.968 51.1508L304.718 168.318C308.223 171.277 306.13 177 301.543 177H13.4572Z" fill="url(#paint0_linear_124_6488)"/>
<defs>
<linearGradient id="paint0_linear_124_6488" x1="157.5" y1="44" x2="157.5" y2="177" gradientUnits="userSpaceOnUse">
<stop stop-color="white"/>
<stop offset="1" stop-color="#80D3A7"/>
</linearGradient>
</defs>
</svg>
